<svg width="20" height="20" viewBox="0 0 20 20" fill="none" xmlns="http://www.w3.org/2000/svg">
<path d="M15.8125 14.8125H6L3.60264 1.62702C3.57384 1.46861 3.49035 1.32533 3.36674 1.22217C3.24313 1.11901 3.08723 1.0625 2.92623 1.0625H1.375" stroke="white" stroke-width="1.6" stroke-linecap="round" stroke-linejoin="round"/>
<path d="M6.875 18.25C7.82424 18.25 8.59375 17.4805 8.59375 16.5312C8.59375 15.582 7.82424 14.8125 6.875 14.8125C5.92576 14.8125 5.15625 15.582 5.15625 16.5312C5.15625 17.4805 5.92576 18.25 6.875 18.25Z" stroke="white" stroke-width="1.6" stroke-linecap="round" stroke-linejoin="round"/>
<path d="M15.8125 18.25C16.7617 18.25 17.5312 17.4805 17.5312 16.5312C17.5312 15.582 16.7617 14.8125 15.8125 14.8125C14.8633 14.8125 14.0938 15.582 14.0938 16.5312C14.0938 17.4805 14.8633 18.25 15.8125 18.25Z" stroke="white" stroke-width="1.6" stroke-linecap="round" stroke-linejoin="round"/>
<path d="M5.375 11.375H16.165C16.487 11.375 16.7988 11.262 17.046 11.0557C17.2932 10.8493 17.4602 10.5628 17.5178 10.246L18.5625 4.5H4.125" stroke="white" stroke-width="1.6" stroke-linecap="round" stroke-linejoin="round"/>
</svg>
